<?xml version="1.0" standalone="yes"?>

<svg version="1.1" viewBox="0.0 0.0 581.8320209973754 106.8477690288714" fill="none" stroke="none" stroke-linecap="square" stroke-miterlimit="10" xmlns="http://www.w3.org/2000/svg" xmlns:xlink="http://www.w3.org/1999/xlink"><clipPath id="p.0"><path d="m0 0l581.83203 0l0 106.84777l-581.83203 0l0 -106.84777z" clip-rule="nonzero"></path></clipPath><g clip-path="url(#p.0)"><path fill="#000000" fill-opacity="0.0" d="m0 0l581.83203 0l0 106.84777l-581.83203 0z" fill-rule="nonzero"></path><path fill="#000000" fill-opacity="0.0" d="m-283.56955 668.67847l777.0647 -982.46875" fill-rule="nonzero"></path><path stroke="#f3f3f3" stroke-width="8.0" stroke-linejoin="round" stroke-linecap="butt" d="m-283.56955 668.67847l777.0647 -982.46875" fill-rule="nonzero"></path><path fill="#000000" fill-opacity="0.0" d="m-264.84903 668.67847l777.0647 -982.46875" fill-rule="nonzero"></path><path stroke="#f3f3f3" stroke-width="8.0" stroke-linejoin="round" stroke-linecap="butt" d="m-264.84903 668.67847l777.0647 -982.46875" fill-rule="nonzero"></path><path fill="#000000" fill-opacity="0.0" d="m-239.36475 668.67847l777.0647 -982.46875" fill-rule="nonzero"></path><path stroke="#f3f3f3" stroke-width="8.0" stroke-linejoin="round" stroke-linecap="butt" d="m-239.36475 668.67847l777.0647 -982.46875" fill-rule="nonzero"></path><path fill="#000000" fill-opacity="0.0" d="m-220.64423 668.67847l777.0647 -982.46875" fill-rule="nonzero"></path><path stroke="#f3f3f3" stroke-width="8.0" stroke-linejoin="round" stroke-linecap="butt" d="m-220.64423 668.67847l777.0647 -982.46875" fill-rule="nonzero"></path><path fill="#000000" fill-opacity="0.0" d="m-195.15994 668.67847l777.0647 -982.46875" fill-rule="nonzero"></path><path stroke="#f3f3f3" stroke-width="8.0" stroke-linejoin="round" stroke-linecap="butt" d="m-195.15994 668.67847l777.0647 -982.46875" fill-rule="nonzero"></path><path fill="#000000" fill-opacity="0.0" d="m-176.43944 668.67847l777.0647 -982.46875" fill-rule="nonzero"></path><path stroke="#f3f3f3" stroke-width="8.0" stroke-linejoin="round" stroke-linecap="butt" d="m-176.43944 668.67847l777.0647 -982.46875" fill-rule="nonzero"></path><path fill="#000000" fill-opacity="0.0" d="m-150.95514 668.67847l777.0647 -982.46875" fill-rule="nonzero"></path><path stroke="#f3f3f3" stroke-width="8.0" stroke-linejoin="round" stroke-linecap="butt" d="m-150.95514 668.67847l777.0647 -982.46875" fill-rule="nonzero"></path><path fill="#000000" fill-opacity="0.0" d="m-132.23463 668.67847l777.0647 -982.46875" fill-rule="nonzero"></path><path stroke="#f3f3f3" stroke-width="8.0" stroke-linejoin="round" stroke-linecap="butt" d="m-132.23463 668.67847l777.0647 -982.46875" fill-rule="nonzero"></path><path fill="#000000" fill-opacity="0.0" d="m-150.95695 724.5716l777.0647 -982.46875" fill-rule="nonzero"></path><path stroke="#f3f3f3" stroke-width="8.0" stroke-linejoin="round" stroke-linecap="butt" d="m-150.95695 724.5716l777.0647 -982.46875" fill-rule="nonzero"></path><path fill="#000000" fill-opacity="0.0" d="m-132.23645 724.5716l777.0647 -982.46875" fill-rule="nonzero"></path><path stroke="#f3f3f3" stroke-width="8.0" stroke-linejoin="round" stroke-linecap="butt" d="m-132.23645 724.5716l777.0647 -982.46875" fill-rule="nonzero"></path><path fill="#000000" fill-opacity="0.0" d="m-106.75215 724.5716l777.0647 -982.46875" fill-rule="nonzero"></path><path stroke="#f3f3f3" stroke-width="8.0" stroke-linejoin="round" stroke-linecap="butt" d="m-106.75215 724.5716l777.0647 -982.46875" fill-rule="nonzero"></path><path fill="#000000" fill-opacity="0.0" d="m-88.03165 724.5716l777.0647 -982.46875" fill-rule="nonzero"></path><path stroke="#f3f3f3" stroke-width="8.0" stroke-linejoin="round" stroke-linecap="butt" d="m-88.03165 724.5716l777.0647 -982.46875" fill-rule="nonzero"></path><path fill="#000000" fill-opacity="0.0" d="m-62.54735 724.5716l777.0647 -982.46875" fill-rule="nonzero"></path><path stroke="#f3f3f3" stroke-width="8.0" stroke-linejoin="round" stroke-linecap="butt" d="m-62.54735 724.5716l777.0647 -982.46875" fill-rule="nonzero"></path><path fill="#000000" fill-opacity="0.0" d="m-43.826843 724.5716l777.0647 -982.46875" fill-rule="nonzero"></path><path stroke="#f3f3f3" stroke-width="8.0" stroke-linejoin="round" stroke-linecap="butt" d="m-43.826843 724.5716l777.0647 -982.46875" fill-rule="nonzero"></path><path fill="#000000" fill-opacity="0.0" d="m-18.342552 724.5716l777.0647 -982.46875" fill-rule="nonzero"></path><path stroke="#f3f3f3" stroke-width="8.0" stroke-linejoin="round" stroke-linecap="butt" d="m-18.342552 724.5716l777.0647 -982.46875" fill-rule="nonzero"></path><path fill="#000000" fill-opacity="0.0" d="m0.3779548 724.5716l777.0647 -982.46875" fill-rule="nonzero"></path><path stroke="#f3f3f3" stroke-width="8.0" stroke-linejoin="round" stroke-linecap="butt" d="m0.3779548 724.5716l777.0647 -982.46875" fill-rule="nonzero"></path><path fill="#000000" fill-opacity="0.0" d="m-438.28424 640.7319l777.0647 -982.46875" fill-rule="nonzero"></path><path stroke="#f3f3f3" stroke-width="8.0" stroke-linejoin="round" stroke-linecap="butt" d="m-438.28424 640.7319l777.0647 -982.46875" fill-rule="nonzero"></path><path fill="#000000" fill-opacity="0.0" d="m-419.56372 640.7319l777.0647 -982.46875" fill-rule="nonzero"></path><path stroke="#f3f3f3" stroke-width="8.0" stroke-linejoin="round" stroke-linecap="butt" d="m-419.56372 640.7319l777.0647 -982.46875" fill-rule="nonzero"></path><path fill="#000000" fill-opacity="0.0" d="m-394.07944 640.7319l777.0647 -982.46875" fill-rule="nonzero"></path><path stroke="#f3f3f3" stroke-width="8.0" stroke-linejoin="round" stroke-linecap="butt" d="m-394.07944 640.7319l777.0647 -982.46875" fill-rule="nonzero"></path><path fill="#000000" fill-opacity="0.0" d="m-375.35892 640.7319l777.0647 -982.46875" fill-rule="nonzero"></path><path stroke="#f3f3f3" stroke-width="8.0" stroke-linejoin="round" stroke-linecap="butt" d="m-375.35892 640.7319l777.0647 -982.46875" fill-rule="nonzero"></path><path fill="#000000" fill-opacity="0.0" d="m-349.87463 640.7319l777.0647 -982.46875" fill-rule="nonzero"></path><path stroke="#f3f3f3" stroke-width="8.0" stroke-linejoin="round" stroke-linecap="butt" d="m-349.87463 640.7319l777.0647 -982.46875" fill-rule="nonzero"></path><path fill="#000000" fill-opacity="0.0" d="m-331.1541 640.7319l777.0647 -982.46875" fill-rule="nonzero"></path><path stroke="#f3f3f3" stroke-width="8.0" stroke-linejoin="round" stroke-linecap="butt" d="m-331.1541 640.7319l777.0647 -982.46875" fill-rule="nonzero"></path><path fill="#000000" fill-opacity="0.0" d="m-305.66983 640.7319l777.0647 -982.46875" fill-rule="nonzero"></path><path stroke="#f3f3f3" stroke-width="8.0" stroke-linejoin="round" stroke-linecap="butt" d="m-305.66983 640.7319l777.0647 -982.46875" fill-rule="nonzero"></path><path fill="#000000" fill-opacity="0.0" d="m-286.9493 640.7319l777.0647 -982.46875" fill-rule="nonzero"></path><path stroke="#f3f3f3" stroke-width="8.0" stroke-linejoin="round" stroke-linecap="butt" d="m-286.9493 640.7319l777.0647 -982.46875" fill-rule="nonzero"></path><path fill="#000000" fill-opacity="0.0" d="m-526.6926 528.9456l777.0647 -982.46875" fill-rule="nonzero"></path><path stroke="#f3f3f3" stroke-width="8.0" stroke-linejoin="round" stroke-linecap="butt" d="m-526.6926 528.9456l777.0647 -982.46875" fill-rule="nonzero"></path><path fill="#000000" fill-opacity="0.0" d="m-507.97214 528.9456l777.0647 -982.46875" fill-rule="nonzero"></path><path stroke="#f3f3f3" stroke-width="8.0" stroke-linejoin="round" stroke-linecap="butt" d="m-507.97214 528.9456l777.0647 -982.46875" fill-rule="nonzero"></path><path fill="#000000" fill-opacity="0.0" d="m-482.48785 528.9456l777.0647 -982.46875" fill-rule="nonzero"></path><path stroke="#f3f3f3" stroke-width="8.0" stroke-linejoin="round" stroke-linecap="butt" d="m-482.48785 528.9456l777.0647 -982.46875" fill-rule="nonzero"></path><path fill="#000000" fill-opacity="0.0" d="m-463.76733 528.9456l777.0647 -982.46875" fill-rule="nonzero"></path><path stroke="#f3f3f3" stroke-width="8.0" stroke-linejoin="round" stroke-linecap="butt" d="m-463.76733 528.9456l777.0647 -982.46875" fill-rule="nonzero"></path><path fill="#000000" fill-opacity="0.0" d="m-438.28305 528.9456l777.0647 -982.46875" fill-rule="nonzero"></path><path stroke="#f3f3f3" stroke-width="8.0" stroke-linejoin="round" stroke-linecap="butt" d="m-438.28305 528.9456l777.0647 -982.46875" fill-rule="nonzero"></path><path fill="#000000" fill-opacity="0.0" d="m-419.56253 528.9456l777.0647 -982.46875" fill-rule="nonzero"></path><path stroke="#f3f3f3" stroke-width="8.0" stroke-linejoin="round" stroke-linecap="butt" d="m-419.56253 528.9456l777.0647 -982.46875" fill-rule="nonzero"></path><path fill="#000000" fill-opacity="0.0" d="m-394.07825 528.9456l777.0647 -982.46875" fill-rule="nonzero"></path><path stroke="#f3f3f3" stroke-width="8.0" stroke-linejoin="round" stroke-linecap="butt" d="m-394.07825 528.9456l777.0647 -982.46875" fill-rule="nonzero"></path><path fill="#000000" fill-opacity="0.0" d="m-375.35773 528.9456l777.0647 -982.46875" fill-rule="nonzero"></path><path stroke="#f3f3f3" stroke-width="8.0" stroke-linejoin="round" stroke-linecap="butt" d="m-375.35773 528.9456l777.0647 -982.46875" fill-rule="nonzero"></path><path fill="#000000" fill-opacity="0.0" d="m-836.122 696.625l777.0647 -982.46875" fill-rule="nonzero"></path><path stroke="#f3f3f3" stroke-width="8.0" stroke-linejoin="round" stroke-linecap="butt" d="m-836.122 696.625l777.0647 -982.46875" fill-rule="nonzero"></path><path fill="#000000" fill-opacity="0.0" d="m-817.4015 696.625l777.0647 -982.46875" fill-rule="nonzero"></path><path stroke="#f3f3f3" stroke-width="8.0" stroke-linejoin="round" stroke-linecap="butt" d="m-817.4015 696.625l777.0647 -982.46875" fill-rule="nonzero"></path><path fill="#000000" fill-opacity="0.0" d="m-791.91724 696.625l777.0647 -982.46875" fill-rule="nonzero"></path><path stroke="#f3f3f3" stroke-width="8.0" stroke-linejoin="round" stroke-linecap="butt" d="m-791.91724 696.625l777.0647 -982.46875" fill-rule="nonzero"></path><path fill="#000000" fill-opacity="0.0" d="m-773.1967 696.625l777.0647 -982.46875" fill-rule="nonzero"></path><path stroke="#f3f3f3" stroke-width="8.0" stroke-linejoin="round" stroke-linecap="butt" d="m-773.1967 696.625l777.0647 -982.46875" fill-rule="nonzero"></path><path fill="#000000" fill-opacity="0.0" d="m-747.7124 696.625l777.0647 -982.46875" fill-rule="nonzero"></path><path stroke="#f3f3f3" stroke-width="8.0" stroke-linejoin="round" stroke-linecap="butt" d="m-747.7124 696.625l777.0647 -982.46875" fill-rule="nonzero"></path><path fill="#000000" fill-opacity="0.0" d="m-728.9919 696.625l777.06464 -982.46875" fill-rule="nonzero"></path><path stroke="#f3f3f3" stroke-width="8.0" stroke-linejoin="round" stroke-linecap="butt" d="m-728.9919 696.625l777.06464 -982.46875" fill-rule="nonzero"></path><path fill="#000000" fill-opacity="0.0" d="m-703.5076 696.625l777.0647 -982.46875" fill-rule="nonzero"></path><path stroke="#f3f3f3" stroke-width="8.0" stroke-linejoin="round" stroke-linecap="butt" d="m-703.5076 696.625l777.0647 -982.46875" fill-rule="nonzero"></path><path fill="#000000" fill-opacity="0.0" d="m-684.7871 696.625l777.0647 -982.46875" fill-rule="nonzero"></path><path stroke="#f3f3f3" stroke-width="8.0" stroke-linejoin="round" stroke-linecap="butt" d="m-684.7871 696.625l777.0647 -982.46875" fill-rule="nonzero"></path><path fill="#000000" fill-opacity="0.0" d="m3.7577379 752.5181l777.0647 -982.46875" fill-rule="nonzero"></path><path stroke="#f3f3f3" stroke-width="8.0" stroke-linejoin="round" stroke-linecap="butt" d="m3.7577379 752.5181l777.0647 -982.46875" fill-rule="nonzero"></path><path fill="#000000" fill-opacity="0.0" d="m22.478247 752.5181l777.0647 -982.46875" fill-rule="nonzero"></path><path stroke="#f3f3f3" stroke-width="8.0" stroke-linejoin="round" stroke-linecap="butt" d="m22.478247 752.5181l777.0647 -982.46875" fill-rule="nonzero"></path><path fill="#000000" fill-opacity="0.0" d="m47.962536 752.5181l777.0647 -982.46875" fill-rule="nonzero"></path><path stroke="#f3f3f3" stroke-width="8.0" stroke-linejoin="round" stroke-linecap="butt" d="m47.962536 752.5181l777.0647 -982.46875" fill-rule="nonzero"></path><path fill="#000000" fill-opacity="0.0" d="m66.683044 752.5181l777.0647 -982.46875" fill-rule="nonzero"></path><path stroke="#f3f3f3" stroke-width="8.0" stroke-linejoin="round" stroke-linecap="butt" d="m66.683044 752.5181l777.0647 -982.46875" fill-rule="nonzero"></path><path fill="#000000" fill-opacity="0.0" d="m92.167336 752.5181l777.0647 -982.46875" fill-rule="nonzero"></path><path stroke="#f3f3f3" stroke-width="8.0" stroke-linejoin="round" stroke-linecap="butt" d="m92.167336 752.5181l777.0647 -982.46875" fill-rule="nonzero"></path><path fill="#000000" fill-opacity="0.0" d="m110.88785 752.5181l777.0647 -982.46875" fill-rule="nonzero"></path><path stroke="#f3f3f3" stroke-width="8.0" stroke-linejoin="round" stroke-linecap="butt" d="m110.88785 752.5181l777.0647 -982.46875" fill-rule="nonzero"></path><path fill="#000000" fill-opacity="0.0" d="m136.37213 752.5181l777.0647 -982.46875" fill-rule="nonzero"></path><path stroke="#f3f3f3" stroke-width="8.0" stroke-linejoin="round" stroke-linecap="butt" d="m136.37213 752.5181l777.0647 -982.46875" fill-rule="nonzero"></path><path fill="#000000" fill-opacity="0.0" d="m155.09265 752.5181l777.0647 -982.46875" fill-rule="nonzero"></path><path stroke="#f3f3f3" stroke-width="8.0" stroke-linejoin="round" stroke-linecap="butt" d="m155.09265 752.5181l777.0647 -982.46875" fill-rule="nonzero"></path><path fill="#000000" fill-opacity="0.0" d="m114.28376 836.4227l919.4665 -1162.6438" fill-rule="nonzero"></path><path stroke="#f3f3f3" stroke-width="8.0" stroke-linejoin="round" stroke-linecap="butt" d="m114.28376 836.4227l919.4665 -1162.6438" fill-rule="nonzero"></path><path fill="#000000" fill-opacity="0.0" d="m136.4349 836.4227l919.46655 -1162.6438" fill-rule="nonzero"></path><path stroke="#f3f3f3" stroke-width="8.0" stroke-linejoin="round" stroke-linecap="butt" d="m136.4349 836.4227l919.46655 -1162.6438" fill-rule="nonzero"></path><path fill="#000000" fill-opacity="0.0" d="m166.58936 836.4227l919.46655 -1162.6438" fill-rule="nonzero"></path><path stroke="#f3f3f3" stroke-width="8.0" stroke-linejoin="round" stroke-linecap="butt" d="m166.58936 836.4227l919.46655 -1162.6438" fill-rule="nonzero"></path><path fill="#000000" fill-opacity="0.0" d="m188.74051 836.4227l919.46655 -1162.6438" fill-rule="nonzero"></path><path stroke="#f3f3f3" stroke-width="8.0" stroke-linejoin="round" stroke-linecap="butt" d="m188.74051 836.4227l919.46655 -1162.6438" fill-rule="nonzero"></path><path fill="#000000" fill-opacity="0.0" d="m218.89496 836.4227l919.4665 -1162.6438" fill-rule="nonzero"></path><path stroke="#f3f3f3" stroke-width="8.0" stroke-linejoin="round" stroke-linecap="butt" d="m218.89496 836.4227l919.4665 -1162.6438" fill-rule="nonzero"></path><path fill="#000000" fill-opacity="0.0" d="m241.04611 836.4227l919.46655 -1162.6438" fill-rule="nonzero"></path><path stroke="#f3f3f3" stroke-width="8.0" stroke-linejoin="round" stroke-linecap="butt" d="m241.04611 836.4227l919.46655 -1162.6438" fill-rule="nonzero"></path><path fill="#000000" fill-opacity="0.0" d="m271.20056 836.4227l919.46655 -1162.6438" fill-rule="nonzero"></path><path stroke="#f3f3f3" stroke-width="8.0" stroke-linejoin="round" stroke-linecap="butt" d="m271.20056 836.4227l919.46655 -1162.6438" fill-rule="nonzero"></path><path fill="#000000" fill-opacity="0.0" d="m293.3517 836.4227l919.46655 -1162.6438" fill-rule="nonzero"></path><path stroke="#f3f3f3" stroke-width="8.0" stroke-linejoin="round" stroke-linecap="butt" d="m293.3517 836.4227l919.46655 -1162.6438" fill-rule="nonzero"></path><path fill="#000000" fill-opacity="0.0" d="m379.49347 724.5716l777.06464 -982.46875" fill-rule="nonzero"></path><path stroke="#f3f3f3" stroke-width="8.0" stroke-linejoin="round" stroke-linecap="butt" d="m379.49347 724.5716l777.06464 -982.46875" fill-rule="nonzero"></path><path fill="#000000" fill-opacity="0.0" d="m398.214 724.5716l777.0647 -982.46875" fill-rule="nonzero"></path><path stroke="#f3f3f3" stroke-width="8.0" stroke-linejoin="round" stroke-linecap="butt" d="m398.214 724.5716l777.0647 -982.46875" fill-rule="nonzero"></path><path fill="#000000" fill-opacity="0.0" d="m423.69827 724.5716l777.0647 -982.46875" fill-rule="nonzero"></path><path stroke="#f3f3f3" stroke-width="8.0" stroke-linejoin="round" stroke-linecap="butt" d="m423.69827 724.5716l777.0647 -982.46875" fill-rule="nonzero"></path><path fill="#000000" fill-opacity="0.0" d="m442.41876 724.5716l777.06476 -982.46875" fill-rule="nonzero"></path><path stroke="#f3f3f3" stroke-width="8.0" stroke-linejoin="round" stroke-linecap="butt" d="m442.41876 724.5716l777.06476 -982.46875" fill-rule="nonzero"></path><path fill="#000000" fill-opacity="0.0" d="m467.90308 724.5716l777.0647 -982.46875" fill-rule="nonzero"></path><path stroke="#f3f3f3" stroke-width="8.0" stroke-linejoin="round" stroke-linecap="butt" d="m467.90308 724.5716l777.0647 -982.46875" fill-rule="nonzero"></path><path fill="#000000" fill-opacity="0.0" d="m486.62357 724.5716l777.0647 -982.46875" fill-rule="nonzero"></path><path stroke="#f3f3f3" stroke-width="8.0" stroke-linejoin="round" stroke-linecap="butt" d="m486.62357 724.5716l777.0647 -982.46875" fill-rule="nonzero"></path><path fill="#000000" fill-opacity="0.0" d="m512.10785 724.5716l777.06476 -982.46875" fill-rule="nonzero"></path><path stroke="#f3f3f3" stroke-width="8.0" stroke-linejoin="round" stroke-linecap="butt" d="m512.10785 724.5716l777.06476 -982.46875" fill-rule="nonzero"></path><path fill="#000000" fill-opacity="0.0" d="m530.82837 724.5716l777.0647 -982.46875" fill-rule="nonzero"></path><path stroke="#f3f3f3" stroke-width="8.0" stroke-linejoin="round" stroke-linecap="butt" d="m530.82837 724.5716l777.0647 -982.46875" fill-rule="nonzero"></path><path fill="#000000" fill-opacity="0.0" d="m379.50497 948.09546l1096.0696 -1385.7954" fill-rule="nonzero"></path><path stroke="#f3f3f3" stroke-width="8.0" stroke-linejoin="round" stroke-linecap="butt" d="m379.50497 948.09546l1096.0696 -1385.7954" fill-rule="nonzero"></path><path fill="#000000" fill-opacity="0.0" d="m405.91074 948.09546l1096.0696 -1385.7954" fill-rule="nonzero"></path><path stroke="#f3f3f3" stroke-width="8.0" stroke-linejoin="round" stroke-linecap="butt" d="m405.91074 948.09546l1096.0696 -1385.7954" fill-rule="nonzero"></path><path fill="#000000" fill-opacity="0.0" d="m441.85696 948.09546l1096.0697 -1385.7954" fill-rule="nonzero"></path><path stroke="#f3f3f3" stroke-width="8.0" stroke-linejoin="round" stroke-linecap="butt" d="m441.85696 948.09546l1096.0697 -1385.7954" fill-rule="nonzero"></path><path fill="#000000" fill-opacity="0.0" d="m468.26273 948.09546l1096.0697 -1385.7954" fill-rule="nonzero"></path><path stroke="#f3f3f3" stroke-width="8.0" stroke-linejoin="round" stroke-linecap="butt" d="m468.26273 948.09546l1096.0697 -1385.7954" fill-rule="nonzero"></path><path fill="#000000" fill-opacity="0.0" d="m504.20898 948.09546l1096.0696 -1385.7954" fill-rule="nonzero"></path><path stroke="#f3f3f3" stroke-width="8.0" stroke-linejoin="round" stroke-linecap="butt" d="m504.20898 948.09546l1096.0696 -1385.7954" fill-rule="nonzero"></path><path fill="#000000" fill-opacity="0.0" d="m530.61475 948.09546l1096.0696 -1385.7954" fill-rule="nonzero"></path><path stroke="#f3f3f3" stroke-width="8.0" stroke-linejoin="round" stroke-linecap="butt" d="m530.61475 948.09546l1096.0696 -1385.7954" fill-rule="nonzero"></path><path fill="#000000" fill-opacity="0.0" d="m566.561 948.09546l1096.0696 -1385.7954" fill-rule="nonzero"></path><path stroke="#f3f3f3" stroke-width="8.0" stroke-linejoin="round" stroke-linecap="butt" d="m566.561 948.09546l1096.0696 -1385.7954" fill-rule="nonzero"></path><path fill="#000000" fill-opacity="0.0" d="m592.96674 948.09546l1096.0696 -1385.7954" fill-rule="nonzero"></path><path stroke="#f3f3f3" stroke-width="8.0" stroke-linejoin="round" stroke-linecap="butt" d="m592.96674 948.09546l1096.0696 -1385.7954" fill-rule="nonzero"></path><path fill="#000000" fill-opacity="0.0" d="m-1.0524935 -19.83727l583.937 0l0 146.51968l-583.937 0z" fill-rule="nonzero"></path><path fill="#000000" d="m28.41592 80.96256l0 -53.6875q0 -2.09375 1.453125 -3.546875q1.453125 -1.46875 3.546875 -1.46875l10.734375 0q13.203125 0 22.484379 9.328125q9.28125 9.328127 9.28125 22.531252q0 13.187496 -9.28125 22.515621q-9.281254 9.328125 -22.484379 9.328125l-10.734375 0q-2.09375 0 -3.546875 -1.453125q-1.453125 -1.453125 -1.453125 -3.546875zm10.09375 -48.593746l0 43.499996l5.640625 0q9.015625 -0.09375 15.328125 -6.421875q6.328129 -6.328121 6.328129 -15.328121q0 -9.015625 -6.328129 -15.375q-6.3125 -6.375 -15.328125 -6.375l-5.640625 0zm70.916245 53.593746q-9.1875 0 -15.421875 -6.640625q-6.234375 -6.640625 -6.234375 -16.062496q0 -9.421875 6.234375 -16.109375q6.234375 -6.6875 15.421875 -6.6875q6.46875 0 12.109375 4.0q0.453125 -1.71875 1.71875 -2.859375q1.28125 -1.140625 3.140625 -1.140625q1.875 0 3.28125 1.453125q1.40625 1.453125 1.40625 3.453125l0 35.76562q0 2.0 -1.40625 3.421875q-1.40625 1.40625 -3.28125 1.40625q-1.859375 0 -3.140625 -1.09375q-1.265625 -1.09375 -1.71875 -2.8125q-5.5625 3.90625 -12.109375 3.90625zm-11.921875 -22.703121q0 5.499996 3.3125 9.234371q3.328125 3.734375 8.5625 3.734375q5.234375 0 8.640625 -3.734375q3.421875 -3.734375 3.421875 -9.187496q0 -5.46875 -3.46875 -9.28125q-3.453125 -3.828125 -8.59375 -3.828125q-5.140625 0 -8.515625 3.78125q-3.359375 3.78125 -3.359375 9.28125zm61.038116 17.874996q0 2.0 -1.546875 3.421875q-1.546875 1.40625 -3.515625 1.40625q-1.953125 0 -3.359375 -1.40625q-1.40625 -1.421875 -1.40625 -3.421875l0 -35.843746q0 -2.0 1.40625 -3.40625q1.40625 -1.421875 3.40625 -1.421875q3.09375 0 4.46875 2.828125q4.453125 -2.828125 9.640625 -2.828125q7.921875 0 13.46875 5.59375q5.546875 5.59375 5.546875 13.328125l0 21.749996q0 2.0 -1.359375 3.421875q-1.359375 1.40625 -3.328125 1.40625q-1.953125 0 -3.40625 -1.40625q-1.453125 -1.421875 -1.453125 -3.421875l0 -21.749996q0 -3.8125 -2.78125 -6.5q-2.78125 -2.6875 -6.65625 -2.6875q-3.859375 0 -6.5 2.6875q-2.625 2.6875 -2.625 6.5l0 21.749996zm82.534805 3.375q-1.5 1.453125 -3.59375 1.453125q-2.09375 0 -3.546875 -1.453125q-1.453125 -1.453125 -1.453125 -3.546875l0 -53.6875q0 -2.09375 1.453125 -3.546875q1.453125 -1.46875 3.546875 -1.46875q2.09375 0 3.59375 1.46875q1.5 1.453125 1.5 3.546875l0 21.828127l23.578125 0l0 -21.828127q0 -2.09375 1.453125 -3.546875q1.453125 -1.46875 3.546875 -1.46875q2.09375 0 3.59375 1.46875q1.5 1.453125 1.5 3.546875l0 53.6875q0 2.09375 -1.5 3.546875q-1.5 1.453125 -3.59375 1.453125q-2.09375 0 -3.546875 -1.453125q-1.453125 -1.453125 -1.453125 -3.546875l0 -21.843746l-23.578125 0l0 21.843746q0 2.09375 -1.5 3.546875zm91.9003 -17.46875q0 7.734375 -5.6875 13.328125q-5.6875 5.59375 -13.46875 5.59375q-7.78125 0 -13.390625 -5.546875q-5.59375 -5.5625 -5.59375 -13.375l0 -21.749996q0 -1.921875 1.40625 -3.375q1.421875 -1.453125 3.421875 -1.453125q2.0 0 3.40625 1.453125q1.421875 1.453125 1.421875 3.375l0 21.749996q0 3.90625 2.671875 6.59375q2.6875 2.6875 6.59375 2.6875q3.921875 0 6.6875 -2.6875q2.78125 -2.6875 2.875 -6.59375l0 -21.749996q0 -1.921875 1.359375 -3.375q1.375 -1.453125 3.328125 -1.453125q1.953125 0 3.453125 1.453125q1.515625 1.453125 1.515625 3.375l0 21.749996zm59.572296 14.015625q0 2.0 -1.453125 3.453125q-1.453125 1.453125 -3.375 1.453125q-1.90625 0 -3.234375 -1.140625q-1.3125 -1.140625 -1.671875 -2.765625q-5.734375 3.90625 -12.375 3.90625q-9.203125 0 -15.671875 -6.6875q-6.453125 -6.6875 -6.453125 -16.015621q0 -9.328125 6.453125 -16.0625q6.46875 -6.734375 15.671875 -6.734375q6.734375 0 12.1875 3.828125l0 -17.109377q0 -2.0 1.453125 -3.453125q1.453125 -1.46875 3.5 -1.46875q2.0625 0 3.515625 1.46875q1.453125 1.453125 1.453125 3.453125l0 53.875zm-22.125 -5.015625q5.015625 0 8.609375 -3.765625q3.59375 -3.78125 3.59375 -9.015621q0 -5.234375 -3.546875 -9.046875q-3.546875 -3.828125 -8.640625 -3.828125q-5.09375 0 -8.65625 3.828125q-3.546875 3.8125 -3.546875 9.046875q0 5.234371 3.59375 9.015621q3.59375 3.765625 8.59375 3.765625zm81.95816 5.015625q0 2.0 -1.453125 3.453125q-1.453125 1.453125 -3.375 1.453125q-1.90625 0 -3.234375 -1.140625q-1.3125 -1.140625 -1.671875 -2.765625q-5.734375 3.90625 -12.375 3.90625q-9.203125 0 -15.671875 -6.6875q-6.453125 -6.6875 -6.453125 -16.015621q0 -9.328125 6.453125 -16.0625q6.46875 -6.734375 15.671875 -6.734375q6.734375 0 12.1875 3.828125l0 -17.109377q0 -2.0 1.453125 -3.453125q1.453125 -1.46875 3.5 -1.46875q2.0625 0 3.515625 1.46875q1.453125 1.453125 1.453125 3.453125l0 53.875zm-22.125 -5.015625q5.015625 0 8.609375 -3.765625q3.59375 -3.78125 3.59375 -9.015621q0 -5.234375 -3.546875 -9.046875q-3.546875 -3.828125 -8.640625 -3.828125q-5.09375 0 -8.65625 3.828125q-3.546875 3.8125 -3.546875 9.046875q0 5.234371 3.59375 9.015621q3.59375 3.765625 8.59375 3.765625zm81.67685 -14.015621q0 1.9999962 -1.3124695 3.2343712q-1.3125 1.234375 -3.5 1.234375l-28.9375 0q0.8125 3.90625 3.09375 6.0q2.90625 3.375 8.5 4.0625q5.59375 0.671875 9.703125 -2.234375q1.359375 -1.46875 3.625 -1.46875q2.28125 0 3.1875 1.1875q2.546875 2.828125 0 5.921875q-6.546875 6.0 -16.0625 5.953125q-9.5 -0.046875 -15.921875 -6.6875q-6.40625 -6.640625 -6.5 -16.015621q0.09375 -9.375 6.5 -16.0625q6.421875 -6.6875 15.515625 -6.6875q9.109375 0 15.328125 5.96875q6.2343445 5.953125 6.7812195 15.140625l0 0.453125zm-21.921844 -12.921875q-5.28125 0.28125 -8.46875 3.28125q-3.1875 3.0 -3.8125 6.375l25.75 0q-0.828125 -3.1875 -4.421875 -6.1875q-3.59375 -3.015625 -9.046875 -3.46875zm36.81906 -21.828127q0 -2.09375 1.453125 -3.546875q1.46875 -1.46875 3.5625 -1.46875q2.09375 0 3.59375 1.46875q1.5 1.453125 1.5 3.546875l0 53.6875q0 2.09375 -1.5 3.546875q-1.5 1.453125 -3.59375 1.453125q-2.09375 0 -3.5625 -1.453125q-1.453125 -1.453125 -1.453125 -3.546875l0 -53.6875zm22.573364 0q0 -2.09375 1.453125 -3.546875q1.46875 -1.46875 3.5625 -1.46875q2.09375 0 3.59375 1.46875q1.5 1.453125 1.5 3.546875l0 53.6875q0 2.09375 -1.5 3.546875q-1.5 1.453125 -3.59375 1.453125q-2.09375 0 -3.5625 -1.453125q-1.453125 -1.453125 -1.453125 -3.546875l0 -53.6875z" fill-rule="nonzero"></path><path fill="#000000" fill-opacity="0.0" d="m-0.93905383 -0.46194226l583.93695 0l0 107.30709l-583.93695 0z" fill-rule="nonzero"></path><path stroke="#000000" stroke-width="8.0" stroke-linejoin="round" stroke-linecap="butt" d="m-0.93905383 -0.46194226l583.93695 0l0 107.30709l-583.93695 0z" fill-rule="nonzero"></path></g></svg>

